# xmcd
#
# Track frame offsets: 
#        183
#        14565
#        26918
#        40263
#        54943
#        67608
#        82043
#        97488
#        110788
#        123555
#        137703
#        150198
#        163158
#        176125
#        191075
#        204353
#        218425
#        230515
#        243975
#        258158
#
# Disc length: 3610 seconds
#
# Revision: 0
# Processed by: cddbd v1.4PL0 Copyright (c) Steve Scherf et al.
# Submitted via: ExactAudioCopy v0.90a11
#
DISCID=180e1814
DTITLE=Nat King Cole - Unforgettable
DYEAR=1900
DGENRE=
TTITLE0=Unforgettable
TTITLE1=Pretend
TTITLE2=Tenderly
TTITLE3=Mona Lisa
TTITLE4=Love Is Here To Stay
TTITLE5=Too Young
TTITLE6=A Handful Of Stars
TTITLE7=Blue Gardenia
TTITLE8=Darling, Je Vous Aime Beaucoup
TTITLE9=I Get Sentimental Over Nothing
TTITLE10=If Love Is Good To Me
TTITLE11=Why?
TTITLE12=There Goes My Heart
TTITLE13=A Little Street Where Old Friends Meet
TTITLE14=Dinner For One, Please, James
TTITLE15=A Portrait Of Jennie
TTITLE16=I Envy
TTITLE17=Funny (Not Much)
TTITLE18=I Always Remember You
TTITLE19=It Was So Good While It Lasted
EXTD=
EXTT0=
EXTT1=
EXTT2=
EXTT3=
EXTT4=
EXTT5=
EXTT6=
EXTT7=
EXTT8=
EXTT9=
EXTT10=
EXTT11=
EXTT12=
EXTT13=
EXTT14=
EXTT15=
EXTT16=
EXTT17=
EXTT18=
EXTT19=
PLAYORDER=
